<mxfile host="app.diagrams.net" modified="2022-05-13T23:14:30.087Z" agent="5.0 (X11)" etag="mmkch3paB9Pn-gbnSvbM" version="17.4.0" type="github">
  <diagram id="iVk8PWaa-B1yubxXrdRF" name="Page-1">
    <mxGraphModel dx="931" dy="547" grid="1" gridSize="10" guides="1" tooltips="1" connect="1" arrows="1" fold="1" page="1" pageScale="1" pageWidth="850" pageHeight="1100" math="0" shadow="0">
      <root>
        <mxCell id="0" />
        <mxCell id="1" parent="0" />
        <mxCell id="dSN-5DeUlXZ5IyJd1zOO-1" value="&lt;div&gt;Cliente&lt;/div&gt;" style="shape=umlActor;verticalLabelPosition=bottom;verticalAlign=top;html=1;outlineConnect=0;" vertex="1" parent="1">
          <mxGeometry x="222.5" y="305" width="30" height="60" as="geometry" />
        </mxCell>
        <mxCell id="dSN-5DeUlXZ5IyJd1zOO-2" value="&lt;div&gt;Recepcionista&lt;/div&gt;" style="shape=umlActor;verticalLabelPosition=bottom;verticalAlign=top;html=1;outlineConnect=0;" vertex="1" parent="1">
          <mxGeometry x="650" y="305" width="30" height="60" as="geometry" />
        </mxCell>
        <mxCell id="dSN-5DeUlXZ5IyJd1zOO-3" value="&lt;div&gt;Nutricionista&lt;/div&gt;" style="shape=umlActor;verticalLabelPosition=bottom;verticalAlign=top;html=1;outlineConnect=0;" vertex="1" parent="1">
          <mxGeometry x="422.5" y="120" width="30" height="60" as="geometry" />
        </mxCell>
        <mxCell id="dSN-5DeUlXZ5IyJd1zOO-4" value="Marcar Consulta" style="ellipse;whiteSpace=wrap;html=1;" vertex="1" parent="1">
          <mxGeometry x="470" y="310" width="82.5" height="55" as="geometry" />
        </mxCell>
        <mxCell id="dSN-5DeUlXZ5IyJd1zOO-5" value="&lt;div&gt;Manter Cliente&lt;/div&gt;" style="ellipse;whiteSpace=wrap;html=1;" vertex="1" parent="1">
          <mxGeometry x="621.9300000000001" y="125" width="86.14" height="50" as="geometry" />
        </mxCell>
        <mxCell id="dSN-5DeUlXZ5IyJd1zOO-8" value="Procurar ClÃ­nica" style="ellipse;whiteSpace=wrap;html=1;" vertex="1" parent="1">
          <mxGeometry x="200" y="190" width="75" height="50" as="geometry" />
        </mxCell>
        <mxCell id="dSN-5DeUlXZ5IyJd1zOO-9" value="Consultar Dieta" style="ellipse;whiteSpace=wrap;html=1;" vertex="1" parent="1">
          <mxGeometry x="317.5" y="310" width="80" height="50" as="geometry" />
        </mxCell>
        <mxCell id="dSN-5DeUlXZ5IyJd1zOO-10" value="&lt;div&gt;Manter Dieta&lt;/div&gt;" style="ellipse;whiteSpace=wrap;html=1;" vertex="1" parent="1">
          <mxGeometry x="397.5" y="265" width="80" height="50" as="geometry" />
        </mxCell>
        <mxCell id="dSN-5DeUlXZ5IyJd1zOO-11" value="" style="endArrow=classic;html=1;rounded=0;entryX=0.5;entryY=0;entryDx=0;entryDy=0;" edge="1" parent="1" source="dSN-5DeUlXZ5IyJd1zOO-3" target="dSN-5DeUlXZ5IyJd1zOO-10">
          <mxGeometry width="50" height="50" relative="1" as="geometry">
            <mxPoint x="477.5" y="230" as="sourcePoint" />
            <mxPoint x="527.5" y="180" as="targetPoint" />
          </mxGeometry>
        </mxCell>
        <mxCell id="dSN-5DeUlXZ5IyJd1zOO-12" value="" style="endArrow=classic;html=1;rounded=0;exitX=0.5;exitY=0;exitDx=0;exitDy=0;exitPerimeter=0;entryX=0.5;entryY=1;entryDx=0;entryDy=0;" edge="1" parent="1" source="dSN-5DeUlXZ5IyJd1zOO-1" target="dSN-5DeUlXZ5IyJd1zOO-8">
          <mxGeometry width="50" height="50" relative="1" as="geometry">
            <mxPoint x="300" y="260" as="sourcePoint" />
            <mxPoint x="350" y="210" as="targetPoint" />
          </mxGeometry>
        </mxCell>
        <mxCell id="dSN-5DeUlXZ5IyJd1zOO-13" value="" style="endArrow=classic;html=1;rounded=0;exitX=0.5;exitY=0.5;exitDx=0;exitDy=0;exitPerimeter=0;" edge="1" parent="1" source="dSN-5DeUlXZ5IyJd1zOO-1" target="dSN-5DeUlXZ5IyJd1zOO-9">
          <mxGeometry width="50" height="50" relative="1" as="geometry">
            <mxPoint x="470" y="380" as="sourcePoint" />
            <mxPoint x="520" y="330" as="targetPoint" />
          </mxGeometry>
        </mxCell>
        <mxCell id="dSN-5DeUlXZ5IyJd1zOO-14" value="" style="endArrow=classic;html=1;rounded=0;exitX=0.5;exitY=0.5;exitDx=0;exitDy=0;exitPerimeter=0;entryX=1;entryY=0.5;entryDx=0;entryDy=0;" edge="1" parent="1" source="dSN-5DeUlXZ5IyJd1zOO-2" target="dSN-5DeUlXZ5IyJd1zOO-4">
          <mxGeometry width="50" height="50" relative="1" as="geometry">
            <mxPoint x="470" y="380" as="sourcePoint" />
            <mxPoint x="520" y="330" as="targetPoint" />
          </mxGeometry>
        </mxCell>
        <mxCell id="dSN-5DeUlXZ5IyJd1zOO-15" value="" style="endArrow=classic;html=1;rounded=0;exitX=0.5;exitY=0;exitDx=0;exitDy=0;exitPerimeter=0;entryX=0.5;entryY=1;entryDx=0;entryDy=0;" edge="1" parent="1" source="dSN-5DeUlXZ5IyJd1zOO-2" target="dSN-5DeUlXZ5IyJd1zOO-5">
          <mxGeometry width="50" height="50" relative="1" as="geometry">
            <mxPoint x="470" y="380" as="sourcePoint" />
            <mxPoint x="520" y="330" as="targetPoint" />
          </mxGeometry>
        </mxCell>
        <mxCell id="dSN-5DeUlXZ5IyJd1zOO-16" value="" style="endArrow=classic;html=1;rounded=0;exitX=0.5;exitY=0.5;exitDx=0;exitDy=0;exitPerimeter=0;entryX=0;entryY=0.5;entryDx=0;entryDy=0;" edge="1" parent="1" source="dSN-5DeUlXZ5IyJd1zOO-3" target="dSN-5DeUlXZ5IyJd1zOO-5">
          <mxGeometry width="50" height="50" relative="1" as="geometry">
            <mxPoint x="470" y="380" as="sourcePoint" />
            <mxPoint x="520" y="330" as="targetPoint" />
          </mxGeometry>
        </mxCell>
      </root>
    </mxGraphModel>
  </diagram>
</mxfile>
